<svg width="135.83333333" height="135.83333333" xmlns="http://www.w3.org/2000/svg" viewBox="0 0 256 256" xml:space="preserve"><path fill="#CECECE" d="m231.672 178.483-37-43.971a14.97 14.97 0 0 0-11.505-5.338v-.005H72.833v.005a14.97 14.97 0 0 0-11.505 5.338l-37 43.971c-5.334 6.339-4.519 15.801 1.819 21.135a14.94 14.94 0 0 0 9.65 3.523c4.274 0 8.518-1.817 11.485-5.343l25.55-30.363v55.762h110.333v-55.762l25.55 30.363a14.97 14.97 0 0 0 11.485 5.343 14.94 14.94 0 0 0 9.65-3.523c6.34-5.334 7.156-14.796 1.822-21.135z"></path><path fill="#CECECE" d="M108.038 129.169 128 163.31v36.1l-17.63-30.503h7.649l-12.686-11.194 1.144-28.537zM147.962 129.169 128 163.31v36.1l17.63-30.503h-7.649l12.686-11.194-1.144-28.537z"></path><path fill="#63BCE7" d="M76.784 21.83h102.433v126.089H76.784z"></path><path fill="#6377E7" d="M76.784 21.83h14.667v126.089H76.784z"></path><path fill="#63E2E7" d="M164.55 21.83h14.667v126.089H164.55z"></path><path fill="#CECECE" d="m181.292 118.62 24.669 74.264a14.967 14.967 0 0 0 8.707 9.2 14.943 14.943 0 0 0 10.27.282c7.858-2.622 12.104-11.117 9.482-18.976l-24.669-74.264-28.459 9.494z"></path><path fill="#E2E2E2" d="m234.42 183.39-24.669-74.264-13.204 4.405 23.206 69.859c2.315 6.94-.731 14.371-6.886 17.82a15.1 15.1 0 0 0 1.801.874 14.943 14.943 0 0 0 10.27.282c7.857-2.622 12.103-11.117 9.482-18.976z"></path><path fill="#CECECE" d="M46.249 109.126 21.58 183.39c-2.622 7.859 1.624 16.354 9.482 18.976a14.943 14.943 0 0 0 10.27-.282 14.972 14.972 0 0 0 8.707-9.2l24.669-74.264-28.459-9.494z"></path><path fill="#AFAFAF" d="m36.247 183.39 23.206-69.859-13.204-4.405L21.58 183.39c-2.622 7.859 1.624 16.354 9.482 18.976a14.943 14.943 0 0 0 10.27-.282 15.1 15.1 0 0 0 1.801-.874c-6.155-3.449-9.201-10.879-6.886-17.82z"></path><path fill="#F8AF23" d="m51.111 110.748 2.992-9.347a37.333 37.333 0 0 1 6.099-11.557l9.576-12.303a16.422 16.422 0 0 1 12.959-6.335c6.865 0 12.431 5.565 12.431 12.431v13.71c0 7.079-5.739 12.817-12.817 12.817h-9.933l-2.195 6.96-19.112-6.376z"></path><path fill="#F87023" d="M68.769 101.4a37.333 37.333 0 0 1 6.099-11.557l9.576-12.303a16.38 16.38 0 0 1 5.095-4.301 12.366 12.366 0 0 0-6.803-2.034 16.425 16.425 0 0 0-12.959 6.335l-9.576 12.303a37.354 37.354 0 0 0-6.099 11.557l-2.992 9.347 19.111 6.375 1.396-4.427-5.841-1.948 2.993-9.347z"></path><path fill="#F8AF23" d="M204.891 110.748 201.9 101.4a37.333 37.333 0 0 0-6.099-11.557l-9.576-12.303a16.422 16.422 0 0 0-12.959-6.335c-6.865 0-12.431 5.565-12.431 12.431v13.71c0 7.079 5.739 12.817 12.817 12.817h9.933l2.195 6.96 19.111-6.375z"></path><path fill="#F8D323" d="M204.891 110.748 201.9 101.4a37.333 37.333 0 0 0-6.099-11.557l-9.576-12.303a16.422 16.422 0 0 0-12.959-6.335c-2.513 0-4.848.752-6.803 2.034a16.393 16.393 0 0 1 5.095 4.301l9.576 12.303a37.354 37.354 0 0 1 6.099 11.557l2.992 9.347-5.841 1.948 1.396 4.427 19.111-6.374z"></path><g fill="#F8AF23"><path d="m100.828 114.75 3.559 7.212 7.959 1.156-5.759 5.614 1.359 7.926-7.118-3.742-7.119 3.742 1.36-7.926-5.759-5.614 7.958-1.156zM128 114.75l3.559 7.212 7.959 1.156-5.759 5.614 1.359 7.926-7.118-3.742-7.118 3.742 1.359-7.926-5.759-5.614 7.959-1.156zM155.172 114.75l3.56 7.212 7.958 1.156-5.759 5.614 1.36 7.926-7.119-3.742-7.118 3.742 1.359-7.926-5.759-5.614 7.959-1.156z"></path></g><path fill="#CECECE" d="m114.718 95.738 7.035-48.576h12.494l7.035 48.576c.717 4.948-3.121 9.381-8.12 9.381h-10.323c-5 0-8.837-4.433-8.121-9.381z"></path><path fill="#F46275" d="M132.936 47.162h-9.871V37.29h9.871z"></path><circle fill="#F46275" cx="128" cy="73.669" r="5.169"></circle><g fill="#3F3679"><path d="M27.323 232.67H9.32a1.5 1.5 0 1 0 0 3h18.003a1.5 1.5 0 1 0 0-3zM246.68 232.67h-18.003a1.5 1.5 0 1 0 0 3h18.003a1.5 1.5 0 1 0 0-3zM218.479 232.67H37.521a1.5 1.5 0 1 0 0 3H218.48a1.5 1.5 0 1 0-.001-3zM9.32 224.697h237.36a1.5 1.5 0 1 0 0-3h-62.013v-50.15s23.003 27.319 23.056 27.366a16.469 16.469 0 0 0 6.392 4.565 16.504 16.504 0 0 0 11.297.31c8.63-2.879 13.31-12.243 10.432-20.871l-24.669-74.264a1.503 1.503 0 0 0-1.899-.951l-3.42 1.141-2.528-7.901a38.714 38.714 0 0 0-6.344-12.021l-9.576-12.304a17.877 17.877 0 0 0-6.691-5.298V21.83a1.5 1.5 0 0 0-1.5-1.5H76.783a1.5 1.5 0 0 0-1.5 1.5v49.492a17.86 17.86 0 0 0-6.689 5.297l-9.576 12.304a38.756 38.756 0 0 0-6.344 12.021l-2.529 7.901-3.421-1.141a1.503 1.503 0 0 0-1.899.951l-24.668 74.262c-2.879 8.63 1.801 17.994 10.431 20.873a16.5 16.5 0 0 0 11.297-.31 16.473 16.473 0 0 0 6.391-4.564c.053-.047 23.057-27.367 23.057-27.367v50.149H9.32a1.5 1.5 0 1 0 0 2.999zm109.691-56.914-12.15-10.722.307-7.642h10.972l8.361 14.298v30.101l-13.53-23.41h5.049a1.5 1.5 0 0 0 .991-2.625zm29.822-18.365.306 7.642-12.15 10.722a1.499 1.499 0 0 0 .992 2.624h5.049l-13.53 23.41v-30.101l8.361-14.298h10.972zM128 160.338l-6.385-10.92h12.77L128 160.338zm56.314 6.131a1.499 1.499 0 0 0-2.647.966v54.262H129.5v-21.884l17.429-30.155a1.5 1.5 0 0 0-1.299-2.25h-3.682l9.711-8.569a1.5 1.5 0 0 0 .507-1.185l-.33-8.235h27.381a1.5 1.5 0 0 0 1.5-1.5v-17.25h2.359a1.383 1.383 0 0 0 .606-.094l19.288 58.065-18.656-22.171zm-1.829-54.805 1.42 4.503-3.088 1.03c-.036.012-.066.031-.101.045v-5.578h1.769zm-1.768 9.983 2 6.022h-2v-6.022zm52.28 62.218c2.354 7.061-1.474 14.722-8.534 17.078a13.514 13.514 0 0 1-9.242-.253 13.48 13.48 0 0 1-7.836-8.278l-24.197-72.843 3.063-1.022.004-.001 18.712-6.242 3.834-1.279 24.196 72.84zM185.041 78.461l9.576 12.304a35.754 35.754 0 0 1 5.854 11.092l2.54 7.936-16.259 5.424-1.736-5.505a1.5 1.5 0 0 0-1.431-1.049h-9.933c-6.24 0-11.317-5.077-11.317-11.317v-13.71c0-6.027 4.903-10.931 10.931-10.931 4.635 0 8.927 2.098 11.775 5.756zM78.283 23.33h99.434v46.935a18.042 18.042 0 0 0-4.451-.56c-7.682 0-13.931 6.25-13.931 13.931v13.71c0 7.895 6.423 14.317 14.317 14.317h4.064v34.755H78.283v-34.755h4.066c7.895 0 14.317-6.423 14.317-14.317v-13.71c0-7.682-6.25-13.931-13.932-13.931-1.525 0-3.016.196-4.452.56V23.33zm-3 104.339h-2l2-6.022v6.022zm0-10.427c-.034-.014-.065-.033-.101-.045l-3.086-1.03 1.42-4.504h1.767v5.579zm-22.293-7.449 2.541-7.936a35.733 35.733 0 0 1 5.854-11.092l9.576-12.304a14.828 14.828 0 0 1 11.774-5.756c6.027 0 10.932 4.904 10.932 10.931v13.71c0 6.24-5.077 11.317-11.317 11.317h-9.933c-.654 0-1.233.424-1.431 1.049l-1.736 5.505-4.801-1.602-11.459-3.822zm-12.211 90.896a13.502 13.502 0 0 1-9.242.253c-7.061-2.356-10.889-10.017-8.533-17.08l24.195-72.838 18.591 6.202 3.957 1.32h.001l3.065 1.022-24.196 72.84a13.481 13.481 0 0 1-7.838 8.281zm32.568-34.663a1.499 1.499 0 0 0-1.661.443L53.03 188.64l19.25-57.951c.228-.005.457-.003.68-.02h2.323v17.25a1.5 1.5 0 0 0 1.5 1.5h27.381l-.33 8.235a1.5 1.5 0 0 0 .507 1.185l9.711 8.569h-3.682a1.5 1.5 0 0 0-1.299 2.25l17.429 30.155v21.884H74.333v-54.262a1.5 1.5 0 0 0-.986-1.409z"></path><path d="M89.094 121.634a1.502 1.502 0 0 0-.831 2.559l5.194 5.063-1.227 7.15a1.499 1.499 0 0 0 2.177 1.582l6.421-3.375 6.42 3.375a1.501 1.501 0 0 0 2.177-1.581l-1.227-7.15 5.194-5.063a1.501 1.501 0 0 0-.831-2.559l-7.179-1.043-3.21-6.504a1.498 1.498 0 0 0-2.69 0l-3.211 6.505-7.177 1.041zm9.519.992 2.215-4.486 2.214 4.486a1.5 1.5 0 0 0 1.129.821l4.951.719-3.582 3.492a1.5 1.5 0 0 0-.432 1.328l.846 4.931-4.428-2.328a1.501 1.501 0 0 0-1.396 0l-4.429 2.328.846-4.931a1.502 1.502 0 0 0-.432-1.328l-3.582-3.492 4.951-.719a1.5 1.5 0 0 0 1.129-.821zM139.733 121.634l-7.178-1.043-3.211-6.505a1.498 1.498 0 0 0-2.69 0l-3.211 6.505-7.178 1.043a1.502 1.502 0 0 0-.831 2.559l5.194 5.063-1.227 7.15a1.499 1.499 0 0 0 2.177 1.581l6.42-3.375 6.42 3.375a1.504 1.504 0 0 0 1.58-.115 1.5 1.5 0 0 0 .597-1.467l-1.227-7.15 5.194-5.063a1.501 1.501 0 0 0-.829-2.558zm-7.021 6.024a1.5 1.5 0 0 0-.432 1.328l.846 4.931-4.428-2.328a1.498 1.498 0 0 0-1.396 0l-4.428 2.328.846-4.931a1.502 1.502 0 0 0-.432-1.328l-3.582-3.492 4.95-.719a1.5 1.5 0 0 0 1.129-.82L128 118.14l2.215 4.487c.218.442.641.75 1.129.82l4.95.719-3.582 3.492zM142.228 122.655a1.502 1.502 0 0 0 .38 1.538l5.194 5.063-1.227 7.15a1.499 1.499 0 0 0 2.177 1.581l6.42-3.375 6.421 3.375a1.504 1.504 0 0 0 1.58-.115 1.5 1.5 0 0 0 .597-1.467l-1.227-7.15 5.194-5.063a1.501 1.501 0 0 0-.831-2.559l-7.179-1.043-3.211-6.505a1.498 1.498 0 0 0-2.69 0l-3.21 6.504-7.179 1.043a1.505 1.505 0 0 0-1.209 1.023zm9.601.791a1.5 1.5 0 0 0 1.129-.821l2.214-4.486 2.215 4.486c.218.442.641.75 1.129.82l4.951.719-3.582 3.492a1.5 1.5 0 0 0-.432 1.328l.846 4.931-4.429-2.328a1.498 1.498 0 0 0-1.396 0l-4.428 2.328.846-4.931a1.502 1.502 0 0 0-.432-1.328l-3.582-3.492 4.951-.718zM122.839 106.62h10.322a9.704 9.704 0 0 0 9.606-11.097l-7.035-48.576c-.097-.672-.638-1.165-1.296-1.251v-6.913a1.497 1.497 0 0 0-.075-2.992H121.64a1.496 1.496 0 0 0-.075 2.992v6.913c-.658.086-1.199.578-1.296 1.251l-7.035 48.576a9.704 9.704 0 0 0 9.605 11.097zm8.597-67.829v6.871h-6.871v-6.871h6.871zm-15.234 57.162 6.85-47.291h9.897l6.85 47.291a6.71 6.71 0 0 1-1.567 5.351 6.7 6.7 0 0 1-5.069 2.316h-10.322a6.7 6.7 0 0 1-5.069-2.316 6.703 6.703 0 0 1-1.57-5.351z"></path><path d="M128 80.338c3.678 0 6.669-2.992 6.669-6.669S131.678 67 128 67s-6.669 2.992-6.669 6.669 2.991 6.669 6.669 6.669zM128 70c2.023 0 3.669 1.646 3.669 3.669s-1.646 3.669-3.669 3.669-3.669-1.646-3.669-3.669S125.977 70 128 70z"></path></g></svg>