<svg width="135.83333333" height="135.83333333" xmlns="http://www.w3.org/2000/svg" viewBox="0 0 256 256" xml:space="preserve"><path fill="#FB5E3D" d="M218.642 175.26H37.358c-6.013 0-10.893 4.88-10.893 10.893v65.462h203.07v-65.462c0-6.012-4.88-10.893-10.893-10.893z"></path><path fill="#FFCBC3" d="M222.339 219.145a2.5 2.5 0 0 1-2.5-2.5v-30.492c0-.66-.537-1.197-1.197-1.197H50.358a2.5 2.5 0 1 1 0-5h168.283a6.204 6.204 0 0 1 6.197 6.197v30.492a2.498 2.498 0 0 1-2.499 2.5zM40.358 184.956h-3a2.5 2.5 0 1 1 0-5h3a2.5 2.5 0 1 1 0 5z"></path><path fill="#F0C020" d="M229.535 225.391v26.225H26.465v-26.225a25.995 25.995 0 0 0 16.656-6.264c9.737-8.346 24.149-8.386 33.954 0 9.792 8.374 24.203 8.357 33.954 0 9.76-8.366 24.182-8.366 33.943 0 9.741 8.349 24.151 8.383 33.954 0 9.798-8.379 24.21-8.352 33.954 0a25.996 25.996 0 0 0 16.655 6.264zM202.62 160.26v15.001H53.38V160.26c7.58 3.48 16.45-2.04 16.45-10.59V145c.02-6.39 5.22-11.59 11.63-11.59 6.52 0 11.64 5.3 11.64 11.62v4.64c0 6.43 5.21 11.64 11.63 11.64 6.43 0 11.64-5.22 11.64-11.64v-11.91c0-6.42 5.2-11.63 11.63-11.63 6.49 0 11.63 5.29 11.63 11.61v11.93c0 6.43 5.21 11.64 11.64 11.64 6.42 0 11.63-5.22 11.63-11.64v-4.64c0-6.41 5.21-11.62 11.64-11.62 6.5 0 11.61 5.28 11.63 11.59v4.67c0 8.55 8.87 14.07 16.45 10.59z"></path><path fill="#EFEFEF" d="M90.691 108.29H71.083V61.547a5 5 0 0 1 5-5h9.608a5 5 0 0 1 5 5v46.743z"></path><path fill="#FB5E3D" d="M88.925 37.617a8.037 8.037 0 0 1-8.037 8.037c-4.439 0-8.037-3.598-8.037-8.037s8.037-14.838 8.037-14.838 8.037 10.399 8.037 14.838zM128 95.813a7.066 7.066 0 0 1-7.066-7.066V57.238h14.131v31.509A7.064 7.064 0 0 1 128 95.813z"></path><path fill="#EFEFEF" d="M184.917 108.29h-19.608V61.547a5 5 0 0 1 5-5h9.608a5 5 0 0 1 5 5v46.743z"></path><path fill="#FB5E3D" d="M183.15 37.617a8.037 8.037 0 0 1-8.037 8.037c-4.439 0-8.037-3.598-8.037-8.037s8.037-14.838 8.037-14.838 8.037 10.399 8.037 14.838z"></path><path fill="#B34F33" d="M209.44 119.18v30.49c0 4.71-2.8 8.76-6.82 10.59-7.58 3.48-16.45-2.04-16.45-10.59V145c-.02-6.31-5.13-11.59-11.63-11.59-6.43 0-11.64 5.21-11.64 11.62v4.64c0 6.42-5.21 11.64-11.63 11.64-6.43 0-11.64-5.21-11.64-11.64v-11.93c0-6.32-5.14-11.61-11.63-11.61-6.43 0-11.63 5.21-11.63 11.63v11.91c0 6.42-5.21 11.64-11.64 11.64-6.42 0-11.63-5.21-11.63-11.64v-4.64c0-6.32-5.12-11.62-11.64-11.62-6.41 0-11.61 5.2-11.63 11.59v4.67c0 8.55-8.87 14.07-16.45 10.59-4.02-1.83-6.82-5.88-6.82-10.59v-30.49c0-6.01 4.88-10.89 10.9-10.89h141.08c6.02 0 10.9 4.88 10.9 10.89z"></path><path fill="#FFCBC3" d="M202.241 152.173a2.5 2.5 0 0 1-2.5-2.5v-30.49c0-.659-.537-1.196-1.197-1.196H70.456a2.5 2.5 0 1 1 0-5h128.088a6.203 6.203 0 0 1 6.197 6.196v30.49a2.5 2.5 0 0 1-2.5 2.5zM60.456 117.986h-3a2.5 2.5 0 1 1 0-5h3a2.5 2.5 0 1 1 0 5z"></path><path fill="#F0C020" d="M48.918 78.1c-3.653-1.207-7.425-2.262-9.544-11.386-1.951 8.404-5.076 9.91-9.544 11.386 7.286 2.408 8.385 6.394 9.544 11.386 1.997-8.605 5.299-9.983 9.544-11.386zM226.169 78.1c-3.653-1.207-7.425-2.262-9.544-11.386-1.951 8.404-5.076 9.91-9.544 11.386 7.286 2.408 8.385 6.394 9.544 11.386 1.997-8.605 5.3-9.983 9.544-11.386zM137.544 15.716c-3.653-1.207-7.426-2.262-9.544-11.386-1.951 8.404-5.076 9.91-9.544 11.386 7.286 2.408 8.385 6.394 9.544 11.386 1.996-8.605 5.299-9.984 9.544-11.386z"></path><path d="M47.894 193.891v-1.271a2.5 2.5 0 1 0-5 0v1.271a2.5 2.5 0 1 0 5 0zM85.656 200.967v-1.271a2.5 2.5 0 1 0-5 0v1.271a2.5 2.5 0 1 0 5 0zM208.499 200.331v-1.271a2.5 2.5 0 1 0-5 0v1.271a2.5 2.5 0 1 0 5 0zM130.541 193.256v-1.271a2.5 2.5 0 1 0-5 0v1.271a2.5 2.5 0 1 0 5 0zM187.326 193.891v-1.271a2.5 2.5 0 1 0-5 0v1.271a2.5 2.5 0 1 0 5 0zM149.563 202.237v-1.271a2.5 2.5 0 1 0-5 0v1.271a2.5 2.5 0 1 0 5 0zM128 35.046a2.5 2.5 0 0 0-2.5 2.5v2.398a2.5 2.5 0 1 0 5 0v-2.398a2.5 2.5 0 0 0-2.5-2.5zM118.317 41.649a2.5 2.5 0 0 0 .001 3.536l1.696 1.695a2.5 2.5 0 1 0 3.535-3.537l-1.696-1.695a2.503 2.503 0 0 0-3.536.001zM134.544 41.649l-1.695 1.695a2.498 2.498 0 0 0 0 3.535 2.498 2.498 0 0 0 3.535 0l1.695-1.695a2.5 2.5 0 0 0-3.535-3.535z"></path><circle cx="71.08" cy="77.899" r="2.5"></circle><path d="M82.87 21.25a2.505 2.505 0 0 0-3.96 0c-1 .952-8.481 11.339-8.561 16.37 0 5.81 4.73 10.529 10.54 10.529 5.811 0 10.53-4.72 10.53-10.529-.089-5.664-8.549-16.37-8.549-16.37zm3.55 16.37c0 3.04-2.49 5.529-5.53 5.529-3.05 0-5.53-2.489-5.54-5.54-.162-1.977 4.02-8.495 5.54-10.59 1.185 1.707 5.784 8.535 5.53 10.601zM164.58 37.62c0 5.81 4.72 10.529 10.529 10.529 5.811 0 10.54-4.72 10.54-10.529-.071-4.672-5.625-12.482-8.449-16.23-1.169-1.547-3.118-1.371-4.07-.14v.01c-2.767 3.532-8.478 11.703-8.55 16.36zm10.529-10.601c1.197 1.704 5.794 8.535 5.54 10.601-.01 3.04-2.489 5.529-5.54 5.529-3.05 0-5.529-2.489-5.54-5.54-.121-2.293 4.614-9.221 5.54-10.59z"></path><circle cx="209.439" cy="129.18" r="2.5"></circle><path d="M68.416 231.293a2.5 2.5 0 0 0-2.5 2.5v1.26a2.5 2.5 0 1 0 5 0v-1.26a2.5 2.5 0 0 0-2.5-2.5zM130.097 147.566a2.5 2.5 0 0 0-2.5 2.5v1.26a2.5 2.5 0 1 0 5 0v-1.26a2.5 2.5 0 0 0-2.5-2.5zM78.696 160.616a2.5 2.5 0 0 0-2.5 2.5v1.261a2.5 2.5 0 1 0 5 0v-1.261a2.5 2.5 0 0 0-2.5-2.5zM55.565 236.035a2.5 2.5 0 0 0-2.5 2.5v1.26a2.5 2.5 0 1 0 5 0v-1.26a2.5 2.5 0 0 0-2.5-2.5zM194.792 239.165v-1.26a2.5 2.5 0 1 0-5 0v1.26a2.5 2.5 0 1 0 5 0zM26.47 200.25c1.37 0 2.49-1.12 2.49-2.49 0-1.38-1.12-2.51-2.49-2.51a2.51 2.51 0 0 0-2.5 2.51c0 1.37 1.12 2.49 2.5 2.49z"></path><path d="M248.25 249.116h-16.22v-62.967c0-7.38-6.011-13.39-13.391-13.39h-13.52V161.75a14.168 14.168 0 0 0 6.819-12.081v-10.49c0-1.38-1.12-2.5-2.5-2.5s-2.489 1.12-2.5 2.49v10.5c0 3.743-2.324 7.297-6.196 8.645-5.925 2.024-12.062-2.438-12.074-8.645V145c-.021-7.764-6.358-14.09-14.14-14.09-7.79 0-14.131 6.34-14.131 14.12v4.64c-.01 5.03-4.109 9.13-9.13 9.14-5.029-.01-9.13-4.109-9.14-9.14v-11.92c0-7.78-6.34-14.11-14.13-14.12-7.79 0-14.13 6.34-14.13 14.13v11.91c-.011 5.03-4.11 9.13-9.141 9.14-5.02-.01-9.12-4.109-9.13-9.14v-4.64c-.01-7.78-6.359-14.11-14.13-14.12h-.01c-7.738 0-14.101 6.347-14.13 14.08v4.68c-.011 5.138-4.251 9.13-9.16 9.14-5.007 0-9.11-4.119-9.11-9.14v-30.49c.01-4.62 3.78-8.38 8.391-8.39h141.09c4.62.01 8.39 3.77 8.399 8.39a2.5 2.5 0 0 0 5 0c-.01-7.38-6.01-13.39-13.399-13.39h-11.12V61.55c-.01-4.14-3.37-7.5-7.5-7.5h-9.61c-4.14 0-7.5 3.36-7.5 7.5v44.24H130.5v-7.78c4.053-1.032 7.06-4.699 7.06-9.071V57.24c0-1.464-1.185-2.5-2.49-2.5h-14.14a2.492 2.492 0 0 0-2.49 2.5v31.699c0 4.372 3.007 8.039 7.061 9.071v7.78H93.189V61.55c0-4.14-3.37-7.5-7.5-7.5H76.08c-4.13 0-7.5 3.36-7.5 7.5v6.35a2.5 2.5 0 0 0 5 0v-6.35c0-1.38 1.13-2.5 2.5-2.5h9.609a2.5 2.5 0 0 1 2.5 2.5v44.24H73.58V87.899a2.5 2.5 0 0 0-5 0v17.891H57.45c-7.381 0-13.391 6.01-13.391 13.39v30.49c0 4.969 2.637 9.543 6.82 12.083v11.007h-13.52c-7.38 0-13.39 6.01-13.39 13.39v1.601a2.5 2.5 0 0 0 2.5 2.5c1.37 0 2.5-1.12 2.5-2.5l-.01-1.601c.01-4.619 3.78-8.38 8.399-8.39H218.64c4.62.01 8.391 3.771 8.391 8.39v36.56a23.559 23.559 0 0 1-12.524-5.481c-10.768-9.229-26.414-9.23-37.205-.002-8.904 7.618-21.817 7.619-30.702.002-10.775-9.236-26.42-9.237-37.197 0-8.885 7.616-21.798 7.614-30.702-.001-10.791-9.23-26.438-9.228-37.205.001a23.557 23.557 0 0 1-12.534 5.482V207.75c0-1.37-1.12-2.49-2.49-2.49-1.38 0-2.5 1.12-2.5 2.49v41.366H7.75a2.5 2.5 0 1 0 0 5h240.5a2.5 2.5 0 1 0 0-5zM123.43 73.807l9.13-4.539v6.494l-9.13 4.539v-6.494zm9.13-14.067v3.944l-9.13 4.539V59.74h9.13zm-9.13 29.199v-3.055l9.13-4.539v7.214a4.75 4.75 0 0 1-4.75 4.75 4.388 4.388 0 0 1-4.38-4.37zm44.38-27.389a2.5 2.5 0 0 1 2.5-2.5h9.61c1.37 0 2.49 1.12 2.5 2.5v44.24h-14.61V61.55zM55.88 172.76v-9.14c7.952 1.378 16.424-4.672 16.45-13.95V145c.02-5.079 4.202-9.086 9.135-9.09 5.037.013 9.135 4.1 9.135 9.12v4.64c0 7.8 6.34 14.14 14.13 14.14 7.79-.01 14.13-6.35 14.141-14.14v-11.91c0-5.02 4.1-9.12 9.13-9.13 5.02.01 9.12 4.1 9.13 9.12v11.92c0 7.8 6.34 14.14 14.14 14.14 7.79-.01 14.13-6.35 14.13-14.14v-4.64c.011-5.021 4.11-9.11 9.15-9.12 5.031 0 9.1 4.137 9.12 9.1v4.66c.022 8.902 8.066 15.388 16.45 13.95v9.14H55.88zm-26.92 76.349v-21.355a28.589 28.589 0 0 0 15.788-6.729c8.885-7.614 21.797-7.616 30.701.002 10.791 9.227 26.438 9.227 37.206-.002 8.892-7.623 21.798-7.623 30.689 0 10.77 9.231 26.417 9.23 37.206.001 8.906-7.616 21.818-7.617 30.701-.001a28.604 28.604 0 0 0 15.778 6.729v21.355c-95.207 0 67.477.019-198.069 0zM41.763 66.159c-.585-2.525-4.195-2.518-4.778 0-1.759 7.574-4.211 8.385-7.924 9.612-2.236.739-2.241 3.918 0 4.658 6.166 2.037 6.865 5.05 7.923 9.611.588 2.53 4.192 2.529 4.779 0 1.757-7.574 4.343-8.429 7.923-9.611 2.236-.739 2.241-3.918 0-4.659-3.438-1.132-6.124-1.864-7.923-9.611zm-2.34 16.058c-.869-1.464-2.075-2.849-3.84-4.061 1.428-.98 2.706-2.309 3.801-4.277 1.107 1.993 2.367 3.313 3.668 4.244-1.358.954-2.577 2.234-3.629 4.094zM219.015 66.159c-.585-2.525-4.195-2.518-4.778 0-1.759 7.574-4.211 8.385-7.924 9.612-2.236.739-2.241 3.918 0 4.658 6.167 2.037 6.865 5.05 7.923 9.611.588 2.53 4.192 2.529 4.779 0 1.757-7.574 4.343-8.429 7.923-9.611 2.236-.739 2.241-3.918 0-4.659-3.438-1.132-6.125-1.864-7.923-9.611zm-2.34 16.058c-.869-1.464-2.075-2.849-3.84-4.061 1.428-.98 2.706-2.309 3.801-4.277 1.107 1.993 2.367 3.313 3.668 4.244-1.358.954-2.577 2.234-3.629 4.094zM138.313 13.386c-3.439-1.133-6.125-1.865-7.924-9.612-.585-2.524-4.195-2.518-4.779 0-1.759 7.574-4.211 8.385-7.924 9.612-2.236.739-2.241 3.918 0 4.658 6.166 2.037 6.865 5.05 7.923 9.611.588 2.53 4.192 2.529 4.779 0 1.757-7.574 4.343-8.429 7.923-9.611 2.238-.738 2.243-3.917.002-4.658zm-10.264 6.446c-.869-1.464-2.075-2.849-3.84-4.061 1.428-.98 2.706-2.309 3.801-4.277 1.107 1.993 2.367 3.312 3.668 4.244-1.358.954-2.577 2.235-3.629 4.094z"></path></svg>